<svg width="229" height="110" fill="none" xmlns="http://www.w3.org/2000/svg"><g clip-path="url(#clip0_612_227)"><path d="M72.416 68.39h-5.311V31.5h8.574a33.02 33.02 0 015.504.35c1.163.2 2.283.603 3.307 1.19a9.8 9.8 0 013.666 3.834 11.091 11.091 0 011.374 5.41 10.331 10.331 0 01-3.5 8.182c-2.333 2.03-5.463 3.046-9.388 3.046H72.39l.026 14.879zm0-19.77h3.876c2.747 0 4.733-.482 5.976-1.453 1.242-.972 1.863-2.486 1.863-4.586a5.613 5.613 0 00-1.89-4.657c-1.254-1.015-3.179-1.522-5.774-1.522h-4.051V48.62zm21.62 19.77V31.5h4.996v36.89h-4.996zm15.215-12.025a9.41 9.41 0 003.141 5.654 8.862 8.862 0 005.967 2.162 8.747 8.747 0 004.506-1.199 8.754 8.754 0 003.238-3.378h5.643a15.845 15.845 0 01-5.372 7.098 13.445 13.445 0 01-8.032 2.459 14.233 14.233 0 01-5.644-1.085 13.933 13.933 0 01-4.628-3.265 14.764 14.764 0 01-3.045-4.779 14.63 14.63 0 01-1.102-5.548 14.984 14.984 0 01.997-5.497 14.558 14.558 0 012.957-4.656 13.999 13.999 0 014.673-3.43 14.118 14.118 0 015.713-1.147c2.38-.002 4.722.6 6.807 1.75a14.405 14.405 0 015.25 4.779 14.006 14.006 0 011.802 4.166 20.69 20.69 0 01.586 5.181v.78l-23.457-.045zm17.928-4.49a10.054 10.054 0 00-3.238-5.33 8.396 8.396 0 00-5.512-1.899 8.791 8.791 0 00-5.696 1.943 9.852 9.852 0 00-3.324 5.252l17.77.035zm25.618 16.515l-6.439-10.502-6.737 10.503h-5.556l9.449-14.45-8.347-13.382h5.617l5.81 9.531 5.932-9.531h5.819l-8.864 13.18 8.925 14.626-5.609.026zm51.098 2.206H72.53v.7h131.365v-.7z" fill="#212529"/><path d="M38.52 64.82a3.805 3.805 0 01-3.395-2.004c-.542-1.126-.064-2.585 1.435-4.376a31.658 31.658 0 014.174-3.965 16.62 16.62 0 01-8.094-2.013 12.916 12.916 0 01-5.494-5.724c-1.82-3.746-1.663-7.264.42-10.564 1.872-3.063 4.97-5.4 9.3-7.054a23.813 23.813 0 016.834-1.54 16.622 16.622 0 015.206.297 10.092 10.092 0 012.152-3.597 8.889 8.889 0 013.229-2.136 5.44 5.44 0 012.703-.315 2.624 2.624 0 012.109 1.217 2.522 2.522 0 01.341 2.065 1.98 1.98 0 01-1.391 1.54 4.248 4.248 0 01-1.549.272h-1.435a5.959 5.959 0 00-2.038 0 3.22 3.22 0 00-1.829 1.698 19.466 19.466 0 014.034 2.45 13.19 13.19 0 013 3.501 10.04 10.04 0 01.272 10.424c-1.75 3.317-4.742 5.882-9.056 7.65-.823.36-1.675.654-2.546.875a27.843 27.843 0 01-3.552.796 12.476 12.476 0 00-2.791 2.372c-.648.875-.875 1.505-.613 1.978.27.57.732 1.029 1.304 1.295 1.219.318 2.5.318 3.718 0l6.125-1.269a207.13 207.13 0 015.88-1.382l4.873-1.173a24.168 24.168 0 019.572-.657 9.23 9.23 0 016.746 4.464c1.942 3.29 1.347 6.634-1.864 10.039-2.712 2.976-5.46 5.085-11.523 8.192-14.2 7.264-25.793 3.054-27.202.087 0 0 8.618 6.354 25.811-2.179a27.123 27.123 0 008.75-6.555c2.16-2.442 2.773-4.455 1.872-6.004a5.932 5.932 0 00-4.209-2.775 18.368 18.368 0 00-8.005.35l-9.791 2.17s-8.758 1.935-13.483 1.55zm-6.475-28.112a10.436 10.436 0 001.015 7.728 12.803 12.803 0 006.011 6.03 11.004 11.004 0 009.371.245 8.75 8.75 0 005.635-6.292 10.575 10.575 0 00-1.33-7.764 12.617 12.617 0 00-6.125-5.592 11.117 11.117 0 00-8.802-.219c-3.097 1.181-5.03 3.124-5.8 5.864h.025z" fill="#212529"/><path d="M39.308 63.06a3.831 3.831 0 01-3.404-1.995c-.543-1.137-.07-2.625 1.435-4.437a32.869 32.869 0 014.173-3.965 16.62 16.62 0 01-8.093-2.004 13.003 13.003 0 01-5.45-5.698c-1.82-3.746-1.663-7.264.42-10.564 1.88-3.063 4.969-5.409 9.309-7.063a23.531 23.531 0 016.833-1.531 16.156 16.156 0 015.25.306 9.89 9.89 0 012.143-3.606 9.066 9.066 0 013.238-2.144 5.407 5.407 0 012.694-.307 2.624 2.624 0 012.11 1.217 2.468 2.468 0 01.35 2.074 1.97 1.97 0 01-1.4 1.532 4.129 4.129 0 01-1.54.262c-.476.025-.952.025-1.427 0a6.506 6.506 0 00-2.056.044 3.299 3.299 0 00-1.829 1.698c1.443.648 2.8 1.471 4.043 2.45a13.322 13.322 0 013 3.502 10.058 10.058 0 01.272 10.424c-1.75 3.325-4.769 5.875-9.056 7.649-.83.353-1.683.646-2.555.875a26.43 26.43 0 01-3.552.797 12.6 12.6 0 00-2.782 2.363c-.656.875-.875 1.505-.622 1.986a2.791 2.791 0 001.304 1.296 7.312 7.312 0 003.727 0c1.908-.394 3.938-.823 6.125-1.26 1.272-.339 3.229-.803 5.871-1.392l4.882-1.173a24.159 24.159 0 019.563-.665 9.255 9.255 0 016.755 4.472c1.951 3.291 1.347 6.635-1.864 10.04-2.72 2.975-5.46 5.084-11.531 8.191-14.183 7.256-25.785 3.063-27.203.088 0 0 8.627 6.354 25.82-2.18a27.236 27.236 0 008.75-6.555c2.17-2.45 2.782-4.437 1.89-6.004a5.96 5.96 0 00-4.218-2.775 18.49 18.49 0 00-8.006.35l-9.79 2.162s-8.837 1.917-13.58 1.54zm-6.484-28.12a10.506 10.506 0 001.015 7.737 12.838 12.838 0 006.011 6.03 11.118 11.118 0 009.38.254 8.75 8.75 0 005.643-6.302 10.59 10.59 0 00-1.339-7.754 12.688 12.688 0 00-6.124-5.61 11.17 11.17 0 00-8.811-.219c-3.063 1.19-4.996 3.133-5.775 5.864z" fill="#E11B22"/><path d="M164.294 36.183v-6.6h2.931a3.77 3.77 0 011.339.184c.309.12.569.343.735.63.183.3.277.647.271.998a1.646 1.646 0 01-.455 1.182 2.293 2.293 0 01-1.4.613c.188.09.364.2.525.332.279.259.523.553.726.875l1.138 1.75h-1.094l-.875-1.364c-.262-.394-.472-.7-.63-.876a1.865 1.865 0 00-.446-.437 1.253 1.253 0 00-.402-.175 2.146 2.146 0 00-.482 0h-1.015v2.923l-.866-.035zm.875-3.676h1.881c.317.01.633-.032.936-.123a1.045 1.045 0 00.692-.989.98.98 0 00-.342-.77 1.59 1.59 0 00-1.076-.306h-2.091v2.188z" fill="#212529"/><path d="M161.888 32.892a5.312 5.312 0 005.302 5.304 5.312 5.312 0 005.311-5.304 5.312 5.312 0 00-5.311-5.313 5.314 5.314 0 00-5.302 5.313zm.359 0a4.953 4.953 0 014.943-4.954 4.963 4.963 0 014.953 4.954 4.961 4.961 0 01-4.953 4.945 4.953 4.953 0 01-4.934-4.945h-.009zM82.644 89.886a5.799 5.799 0 01-4.279-1.619c-1.233-1.234-1.6-2.932-1.6-5.347 0-1.944.148-4.14 1.539-5.628a5.759 5.759 0 014.375-1.75h5.486v.953h-5.023a5.02 5.02 0 00-4.155 1.663c-.99 1.27-1.068 3.151-1.068 4.744 0 1.129 0 2.915.945 4.219a4.804 4.804 0 003.972 1.75h5.556v.989l-5.748.026zm8.146-9.793c1.067-1.042 2.624-1.19 4.016-1.19 1.39 0 2.948.148 4.007 1.19 1.19 1.172 1.356 3.098 1.356 4.306 0 2.354-.656 3.684-1.356 4.376-1.181 1.172-3.045 1.234-4.007 1.234-.963 0-2.826-.061-4.016-1.234-.692-.692-1.348-2.022-1.348-4.376 0-1.208.158-3.134 1.348-4.306zm.673 7.876a4.374 4.374 0 003.343 1.05 4.372 4.372 0 003.333-1.05c.875-.98.875-2.625.875-3.5 0-.876 0-2.626-.875-3.624-.875-.998-2.327-1.006-3.35-1.006-1.025 0-2.52.087-3.36 1.006-.84.92-.876 2.687-.876 3.624 0 .936.01 2.529.91 3.527v-.026zm10.342-7.526a1.658 1.658 0 01.245-1.007 1.282 1.282 0 011.068-.411h3.885a3.298 3.298 0 012.519.805 3.295 3.295 0 01.875 2.52v7.536h-1.067v-7.264a2.925 2.925 0 00-.464-1.943 2.016 2.016 0 00-1.75-.674h-3.85c-.096 0-.218 0-.28.079a.624.624 0 00-.061.324v9.487h-1.067l-.053-9.452zm14.638 9.443a3.552 3.552 0 01-2.625-.639c-.673-.656-.735-1.75-.735-3.01v-6.24h-1.496v-.972h1.496v-3.501h1.068v3.5h2.992v.972h-2.992v6.013c0 .928-.061 2.17.612 2.626a3.746 3.746 0 001.925.271h.578v.963l-.823.017zm7.367-10.861a2.627 2.627 0 011.908.761c.478.618.712 1.391.656 2.17v6.495a1.515 1.515 0 01-.359 1.173 1.818 1.818 0 01-1.233.306h-4.174a3.105 3.105 0 01-1.969-.49c-.875-.744-.962-2.214-.962-2.87a3.198 3.198 0 01.875-2.565 3.193 3.193 0 012.03-.57h4.707v-1.688a2.33 2.33 0 00-.411-1.287 1.477 1.477 0 00-1.146-.49h-5.25v-.971l5.328.026zm-3.499 5.33a1.445 1.445 0 00-1.19.534 2.877 2.877 0 00-.35 1.68 3.106 3.106 0 00.437 1.882 1.407 1.407 0 001.059.473h4.375a.726.726 0 00.472-.123.405.405 0 00.14-.368v-4.06l-4.943-.018zm11.872 5.531a4.004 4.004 0 01-3.193-1.374c-.875-1.024-.98-2.32-.98-3.912 0-1.593.079-3.195 1.225-4.376a4.548 4.548 0 013.377-1.217h3.666v.99h-3.788a2.965 2.965 0 00-3.133 2.205 16.22 16.22 0 00-.201 2.538 8.19 8.19 0 00.368 2.564c.638 1.436 2.213 1.62 3.193 1.62h3.798v.962h-4.332zm10.019 0c-.928 0-1.951 0-2.625-.639-.674-.639-.735-1.75-.735-3.01v-6.24h-1.452v-.972h1.496v-3.501h1.067v3.5h2.984v.972h-2.984v6.013c0 .928-.061 2.17.613 2.626.606.258 1.27.352 1.925.271h.568v.963l-.857.017zm12.284 0a5.834 5.834 0 01-4.287-1.619c-1.225-1.234-1.593-2.932-1.593-5.347 0-1.944.14-4.14 1.532-5.628a5.778 5.778 0 014.374-1.75h5.486v.953h-5.022a5.04 5.04 0 00-4.156 1.663c-.98 1.27-1.059 3.151-1.059 4.744 0 1.129 0 2.914.937 4.219a4.804 4.804 0 003.972 1.75h5.547v.989l-5.731.026zm10.543 0a3.44 3.44 0 01-2.87-1.33c-.875-1.085-.875-2.46-.875-4.061 0-1.602.088-3.352 1.453-4.499a5.248 5.248 0 013.403-.971 5.7 5.7 0 012.765.621 3.75 3.75 0 011.75 3.44 1.924 1.924 0 01-.455 1.409c-.331.242-.737.36-1.146.332h-6.615c-.028.74.034 1.481.184 2.206a2.466 2.466 0 002.424 1.89h5.319v.963h-5.337zm4.007-6.021c.473 0 .455-.578.455-.718a3.282 3.282 0 00-.743-2.214 3.294 3.294 0 00-2.8-.937c-1.085 0-2.257 0-3.01 1.304a4.98 4.98 0 00-.516 2.565h6.614zm3.238-3.422a1.658 1.658 0 01.245-1.007 1.282 1.282 0 011.067-.411h3.885a3.297 3.297 0 012.52.805 3.333 3.333 0 01.875 2.52v7.536h-1.068v-7.264a2.919 2.919 0 00-.463-1.943 2.03 2.03 0 00-1.75-.674h-3.85c-.096 0-.219 0-.28.079a.605.605 0 00-.061.324v9.487h-1.068l-.052-9.452zm14.638 9.443a3.55 3.55 0 01-2.625-.639c-.674-.656-.735-1.75-.735-3.01v-6.24h-1.496v-.972h1.496v-3.501h1.085v3.5h2.992v.972h-2.992v6.013c0 .928-.061 2.17.612 2.626a3.746 3.746 0 001.925.271h.578v.963l-.84.017zm4.978 0a3.44 3.44 0 01-2.87-1.33c-.874-1.085-.874-2.46-.874-4.061 0-1.602.087-3.352 1.452-4.499a5.248 5.248 0 013.403-.971 5.7 5.7 0 012.765.621 3.75 3.75 0 011.75 3.44 1.924 1.924 0 01-.455 1.409c-.331.242-.737.36-1.146.332H189.3c-.028.74.034 1.481.184 2.206a2.472 2.472 0 002.424 1.89h5.32v.963h-5.338zm4.008-6.021c.472 0 .455-.578.455-.718a3.282 3.282 0 00-.744-2.214 3.298 3.298 0 00-2.8-.937c-1.085 0-2.257 0-3.01 1.304a4.98 4.98 0 00-.516 2.565h6.615zm3.237-1.112a3.57 3.57 0 01.962-2.845 3.586 3.586 0 012.625-.874h.735v.962h-.656a2.629 2.629 0 00-2.083.753 3.509 3.509 0 00-.551 2.25v6.887H199.1l.035-7.133z" fill="#212529"/></g><defs><clipPath id="clip0_612_227"><path fill="#fff" transform="translate(25.903 20)" d="M0 0h178v70H0z"/></clipPath></defs></svg>