<svg version="1.1" id="Layer_1" xmlns="http://www.w3.org/2000/svg" x="0" y="0" viewBox="0 0 94.1 60" xml:space="preserve"><style/><path d="M91.3 19.4v38.2h-4.8c-6.4 0-11.6-5.2-11.6-11.6V19.4c1.9 2.5 4.9 4 8.2 4 3.3 0 6.3-1.6 8.2-4z" fill="#3a0ca3"/><linearGradient id="SVGID_1_" gradientUnits="userSpaceOnUse" x1="41.75" y1="27.932" x2="63.748" y2="43.4"><stop offset="0" stop-color="#3a0ca3"/><stop offset=".496" stop-color="#630aad"/><stop offset="1" stop-color="#8909b7"/></linearGradient><path d="M81.2 29.5c0 8.4-2.7 15.2-8.1 20.5l-.2.2C67.5 55.3 60.6 58 52.3 58H33.7L39 45.8c1.1-2.6 3.6-4.2 6.4-4.2h4.5c9.5 0 14.4-4 14.4-12.1 0-7.3-4.4-11.1-13.3-11.3h-2.3c-3.1 0-4.5 2.9-4.6 3.2v.1L28.3 58h-1.2l-1-2.3 2.2-5V18.2l.1.5 4.2-12.3v-.1c.8-2.4 3.1-4 5.6-4h11.5c.9 0 1.7 0 2.6.1 2 .1 3.9.3 5.7.6 2 .3 3.9.8 5.6 1.4 3.1 1.1 5.9 2.5 8.2 4.4.5.4.9.8 1.4 1.2-.3 1-.5 2-.5 3.1 0 .8.1 1.5.3 2.3.8 3.9 3.8 6.9 7.7 7.9.3 1.8.5 4 .5 6.2z" fill="url(#SVGID_1_)"/><path fill="none" d="M11.9 58H45"/><linearGradient id="SVGID_00000179637333116005212890000016484467075493817998_" gradientUnits="userSpaceOnUse" x1="46.869" y1="29.633" x2="6.997" y2="29.633"><stop offset="0" stop-color="#25e5f0"/><stop offset="1" stop-color="#2d61ff"/></linearGradient><path d="M62.2 3.8s-3-.5-6.3 0c-3.1.4-7.2 2.9-9.1 7.4l-2.9 6.7-10.2 23.4-1.4 3.3-5.5 12.7v.1l-.1-.2-.3-.6L2.8 1.9h19.1l4.9 15.9.1.5L31.1 6v-.1c.8-2.4 3.1-4 5.6-4h11.5c.9 0 1.7 0 2.6.1 2 .1 3.9.3 5.7.6 2 .3 3.9.6 5.7 1.2z" fill="url(#SVGID_00000179637333116005212890000016484467075493817998_)"/><circle cx="83.1" cy="13" r="8.2" fill="#f72585"/></svg>