<svg xmlns="http://www.w3.org/2000/svg" viewBox="0 0 114.1 60"><path d="M112.4 1.3v56.8H95.5V1.3h16.9z" fill="#405756"/><path d="M61.8 17.7v40.5H44.9V1.3h22c9.7 0 17.2 2.2 22.7 6.6 6.5 5.2 9.7 12.4 9.7 21.4 0 8.6-2.8 15.6-8.3 21.1-5.6 5.4-12.7 8.2-21.4 8.2-1 0-2.7-.1-5-.2V41.7h2.7c9.8 0 14.8-4.1 14.8-12.4 0-7.7-4.8-11.6-14.5-11.6h-5.8z" fill="#69b884" stroke="#fff" stroke-miterlimit="10"/><path d="M51.1 1.3L26.4 58.2 1.8 1.3h19.6l5.2 16.8 5.7-16.8h18.8z" fill="#fdce55" stroke="#fff" stroke-miterlimit="10"/></svg>